<svg width="140" height="140" viewBox="0 0 140 140" fill="none" xmlns="http://www.w3.org/2000/svg">
<rect width="140" height="140" rx="35" fill="#7B52E9"/>
<path d="M32.2133 102.247L54.1758 24.9844H64.4133L42.4508 102.247H32.2133ZM77.2901 93.8469C73.2068 93.8469 69.561 92.8552 66.3526 90.8719C63.2026 88.8885 60.7235 86.1469 58.9151 82.6469C57.1068 79.1469 56.2026 75.1802 56.2026 70.7469C56.2026 66.3135 57.1068 62.376 58.9151 58.9344C60.7235 55.4344 63.2318 52.6927 66.4401 50.7094C69.6485 48.6677 73.2943 47.6469 77.3776 47.6469C80.7026 47.6469 83.6193 48.2885 86.1276 49.5719C88.636 50.8552 90.6193 52.6344 92.0776 54.9094L92.6901 48.6969H102.578V92.7969H92.7776L92.0776 86.4094C90.6776 88.3927 88.7818 90.1427 86.3901 91.6594C83.9985 93.1177 80.9651 93.8469 77.2901 93.8469ZM79.4776 84.7469C81.986 84.7469 84.2026 84.1635 86.1276 82.9969C88.0526 81.7719 89.5401 80.1094 90.5901 78.0094C91.6401 75.9094 92.1651 73.4885 92.1651 70.7469C92.1651 68.0052 91.6401 65.5844 90.5901 63.4844C89.5401 61.3844 88.0526 59.751 86.1276 58.5844C84.2026 57.4177 81.986 56.8344 79.4776 56.8344C77.086 56.8344 74.9276 57.4177 73.0026 58.5844C71.0776 59.751 69.561 61.3844 68.4526 63.4844C67.4026 65.5844 66.8776 68.0052 66.8776 70.7469C66.8776 73.4885 67.4026 75.9094 68.4526 78.0094C69.561 80.1094 71.0776 81.7719 73.0026 82.9969C74.9276 84.1635 77.086 84.7469 79.4776 84.7469Z" fill="white"/>
</svg>
