<svg width="797" height="141" viewBox="0 0 797 141" fill="none" xmlns="http://www.w3.org/2000/svg">
<path d="M208.101 36.4023C219.044 36.4023 228.451 40.3388 234.69 47.6348L226.627 55.2188C221.732 49.9388 215.684 47.3467 208.677 47.3467C194.758 47.3467 184.679 57.1381 184.679 70.9619C184.679 84.7859 194.758 94.5781 208.677 94.5781C215.684 94.5781 221.732 91.9863 226.627 86.6104L234.69 94.29C228.451 101.586 219.044 105.522 208.005 105.522C187.463 105.522 172.104 91.0259 172.104 70.9619C172.105 50.8981 187.463 36.4023 208.101 36.4023Z" fill="black"/>
<path fill-rule="evenodd" clip-rule="evenodd" d="M261.729 52.7227C276.512 52.7228 285.054 59.7308 285.054 74.5146V104.562H273.728V98.3223C270.848 102.738 265.281 105.234 257.602 105.234C245.891 105.234 238.499 98.8028 238.499 89.875C238.499 81.3311 244.258 74.6105 259.809 74.6104H273.055V73.8428C273.055 66.8348 268.832 62.707 260.289 62.707C254.53 62.707 248.578 64.6269 244.739 67.7949L240.035 59.0586C245.507 54.8347 253.474 52.7227 261.729 52.7227ZM260.673 82.5791C252.514 82.5792 250.306 85.6506 250.306 89.3945C250.306 93.7144 253.953 96.4989 260.097 96.499C265.952 96.499 271.04 93.8103 273.055 88.5303V82.5791H260.673Z" fill="black"/>
<path d="M374.037 53.6826H387.764V63.2822H374.037V87.667C374.037 92.6588 376.533 95.3467 381.14 95.3467C383.636 95.3466 386.036 94.6743 387.859 93.2344L391.22 101.778C388.34 104.082 384.02 105.234 379.7 105.234C368.469 105.234 362.038 99.2828 362.038 87.9551V63.2822H353.591V53.6826H362.038V41.9707H374.037V53.6826Z" fill="black"/>
<path fill-rule="evenodd" clip-rule="evenodd" d="M419.56 52.7227C435.495 52.7227 446.918 63.5707 446.918 78.9307C446.918 94.2906 435.495 105.234 419.56 105.234C403.818 105.234 392.299 94.2907 392.299 78.9307C392.299 63.5707 403.818 52.7227 419.56 52.7227ZM419.56 62.8984C410.921 62.8984 404.394 69.1387 404.394 78.9307C404.394 88.7227 410.921 94.9629 419.56 94.9629C428.296 94.9628 434.823 88.7226 434.823 78.9307C434.823 69.1387 428.296 62.8985 419.56 62.8984Z" fill="black"/>
<path fill-rule="evenodd" clip-rule="evenodd" d="M637.151 54.0664C643.359 54.0664 648.127 55.6345 651.455 58.7705C654.782 61.9065 656.445 66.5784 656.445 72.7861V104.562H651.838V95.5723C650.468 98.0623 648.549 100.131 646.079 101.778C642.88 103.89 638.784 104.946 633.792 104.946C630.081 104.946 626.849 104.371 624.097 103.219C621.409 102.003 619.329 100.307 617.857 98.1309C616.45 95.9549 615.746 93.4585 615.746 90.6426C615.746 88.0826 616.322 85.7785 617.474 83.7305C618.69 81.6185 620.674 79.9226 623.425 78.6426C626.177 77.2986 629.857 76.626 634.464 76.626H651.646V72.5947C651.646 67.9227 650.366 64.3705 647.807 61.9385C645.311 59.5065 641.631 58.29 636.768 58.29C633.312 58.29 630.08 58.8983 627.072 60.1143C624.129 61.2662 621.601 62.77 619.489 64.626L617.09 61.1699C619.586 58.9301 622.593 57.2023 626.112 55.9863C629.632 54.7064 633.312 54.0664 637.151 54.0664ZM634.56 80.3701C629.376 80.3701 625.728 81.33 623.617 83.25C621.569 85.17 620.546 87.5703 620.546 90.4502C620.546 93.6502 621.761 96.2109 624.193 98.1309C626.625 100.051 630.049 101.011 634.464 101.011C638.688 101.011 642.24 100.051 645.119 98.1309C648.063 96.2109 650.238 93.4263 651.646 89.7783V80.3701H634.56Z" fill="black"/>
<path fill-rule="evenodd" clip-rule="evenodd" d="M736.165 54.0664C740.709 54.0664 744.773 55.1224 748.356 57.2344C752.004 59.3463 754.852 62.3223 756.899 66.1621C759.011 69.9381 760.067 74.3225 760.067 79.3145C760.067 79.5064 760.034 79.7303 759.97 79.9863V80.6582H716.89C717.02 84.3664 717.908 87.6947 719.558 90.6426C721.414 93.7784 723.942 96.2422 727.142 98.0342C730.341 99.7622 733.989 100.626 738.085 100.626C741.284 100.626 744.26 100.05 747.012 98.8984C749.827 97.7464 752.196 95.9862 754.116 93.6182L756.899 96.7861C754.724 99.4741 751.972 101.523 748.644 102.931C745.381 104.275 741.829 104.946 737.989 104.946C732.934 104.946 728.454 103.859 724.55 101.683C720.711 99.5066 717.671 96.4982 715.431 92.6582C713.255 88.8184 712.168 84.4345 712.168 79.5068C712.168 74.5148 713.192 70.1305 715.239 66.3545C717.351 62.5145 720.231 59.5061 723.878 57.3301C727.526 55.1541 731.622 54.0664 736.165 54.0664ZM736.165 58.29C732.454 58.29 729.125 59.1865 726.182 60.9785C723.302 62.7065 721.031 65.1386 719.367 68.2744C717.977 70.8414 717.17 73.7214 716.941 76.9141H755.419C755.234 73.7396 754.417 70.8596 752.963 68.2744C751.3 65.1386 749.028 62.7065 746.149 60.9785C743.269 59.1865 739.941 58.29 736.165 58.29Z" fill="black"/>
<path d="M777.794 54.4502H793.729V58.5781H777.794V90.834C777.794 94.034 778.594 96.4986 780.194 98.2266C781.794 99.9545 784.098 100.818 787.105 100.818C790.241 100.818 792.832 99.8901 794.88 98.0342L796.897 101.395C795.617 102.61 794.049 103.506 792.193 104.082C790.401 104.658 788.545 104.946 786.625 104.946C782.21 104.946 778.818 103.731 776.45 101.299C774.147 98.8668 772.995 95.5384 772.995 91.3145V58.5781H763.78V54.4502H772.995V43.5068H777.794V54.4502Z" fill="black"/>
<path d="M326.658 52.7227C338.945 52.7227 348.065 59.7306 348.065 75.1865V104.562H336.066V76.7227C336.066 67.6027 331.554 63.1865 323.875 63.1865C315.332 63.1866 309.572 68.3707 309.572 78.6426V104.562H297.573V53.2988H308.996V59.9229C312.932 55.2189 319.171 52.7227 326.658 52.7227Z" fill="black"/>
<path d="M484.597 52.7227C496.884 52.7227 506.003 59.7306 506.003 75.1865V104.562H494.004V76.7227C494.004 67.6027 489.492 63.1865 481.813 63.1865C473.27 63.1866 467.511 68.3707 467.511 78.6426V104.562H455.512V53.2988H466.935V59.9229C470.87 55.2189 477.11 52.7227 484.597 52.7227Z" fill="black"/>
<path d="M542.287 97.8066L563.337 37.3623H568.041L588.958 97.9473L609.605 37.3623H614.405L591.655 104.562H586.472L565.593 44.252L544.715 104.562H539.532L516.687 37.3623H521.87L542.287 97.8066Z" fill="black"/>
<path d="M678.141 104.562H673.341V33.3311H678.141V104.562Z" fill="black"/>
<path d="M700.29 104.562H695.49V33.3311H700.29V104.562Z" fill="black"/>
<path fill-rule="evenodd" clip-rule="evenodd" d="M70.8388 0.5625C109.466 0.562636 140.78 31.9027 140.78 70.5625C140.78 109.222 109.466 140.562 70.8388 140.562C32.2112 140.562 0.896486 109.222 0.896484 70.5625C0.896484 31.9026 32.2112 0.5625 70.8388 0.5625ZM52.0995 102.094C51.2591 103.013 50.108 103.642 48.8117 103.814L49.6183 129C56.2417 131.413 63.3916 132.729 70.8486 132.729C79.6532 132.729 88.0294 130.895 95.6167 127.586L52.0995 102.094ZM24.8902 112.361C31.329 119.457 39.387 125.055 48.4787 128.572L47.6868 103.847C46.0164 103.724 44.5565 102.846 43.6462 101.552L24.8902 112.361ZM53.5173 98.6426C53.4812 99.5679 53.2144 100.433 52.7723 101.184L96.8783 127.018C97.279 126.832 97.6774 126.642 98.0735 126.448L88.4641 101.999C88.039 102.106 87.5943 102.164 87.1361 102.164C84.4729 102.164 82.259 100.246 81.7948 97.7148L53.5173 98.6426ZM92.5623 96.501C92.5654 96.5761 92.5682 96.6517 92.5682 96.7275C92.5681 98.8737 91.325 100.728 89.5206 101.612L99.0831 125.944C113.801 118.406 125.116 105.158 130.11 89.1201L92.5623 96.501ZM25.6001 74.5283C24.7902 75.1535 23.8005 75.5552 22.7205 75.6406L20.9072 107.5C21.9255 108.879 23.0004 110.213 24.1266 111.501L43.0974 100.569C42.8154 99.9118 42.659 99.1877 42.659 98.4268C42.659 97.0183 43.1931 95.7343 44.071 94.7686L25.6001 74.5283ZM8.82051 68.4932C8.7969 69.1973 8.78439 69.9044 8.78438 70.6143C8.78438 83.7828 12.8792 95.9942 19.8634 106.043L21.5946 75.6133C18.9214 75.2729 16.8549 72.9905 16.8549 70.2227C16.8549 70.0434 16.8633 69.8662 16.8803 69.6914L8.82051 68.4932ZM53.7712 73.5742C52.8155 74.44 51.5516 74.9706 50.1631 74.9795L48.8517 93.0439C51.1939 93.3726 53.0555 95.195 53.446 97.5186L81.7069 96.5908C81.7316 95.5897 82.0252 94.6558 82.5203 93.8594L53.7712 73.5742ZM95.5864 72.2383C94.6503 73.8756 92.89 74.9805 90.8701 74.9805C90.8221 74.9805 90.7742 74.9778 90.7265 74.9766L88.6935 91.5186C90.5127 92.0627 91.9306 93.5343 92.4002 95.3857L129.786 88.0371L95.5864 72.2383ZM27.7103 70.5186C27.6442 71.7513 27.167 72.8737 26.4145 73.7539L44.9107 94.0195C45.713 93.4387 46.6795 93.0722 47.7278 93.0029L49.0422 74.8711C46.7267 74.401 44.9463 72.4575 44.7203 70.0605L27.7103 70.5186ZM55.5503 69.8643C55.4882 70.9319 55.1172 71.9158 54.527 72.7305L83.2116 92.9688C84.2006 91.9348 85.5931 91.291 87.1361 91.291C87.2873 91.291 87.4371 91.2974 87.5852 91.3096L89.6124 74.8311C87.3194 74.2867 85.5889 72.2902 85.4478 69.8643H55.5503ZM106.153 44.8672C105.434 45.2186 104.626 45.417 103.772 45.417C103.35 45.417 102.94 45.3665 102.546 45.2754L93.6667 64.8809C95.2461 65.8317 96.303 67.5639 96.3031 69.543C96.3031 70.1238 96.21 70.6832 96.0414 71.208L130.202 86.9883L106.153 44.8672ZM108.993 41.4766C108.673 42.5979 108.003 43.57 107.108 44.2686L130.974 86.0713C132.238 81.1297 132.912 75.9504 132.912 70.6143C132.912 60.5253 130.507 50.9984 126.243 42.5752L108.993 41.4766ZM26.5785 66.8916C27.1325 67.6056 27.5139 68.4605 27.6566 69.3945L44.7291 68.9346C45.0315 66.2184 47.3334 64.1064 50.128 64.1064C50.258 64.1065 50.3869 64.1121 50.5147 64.1211L53.2556 42.3242C52.1531 42.2016 51.1511 41.7484 50.3487 41.0664L26.5785 66.8916ZM58.1057 40.3125C57.2133 41.4298 55.8917 42.1882 54.3893 42.333L51.6239 64.3164C53.6461 64.8951 55.1858 66.6162 55.5005 68.7383H85.4976C85.6739 67.5493 86.2343 66.4858 87.0492 65.6787L58.1057 40.3125ZM16.517 40.5654C12.083 48.5788 9.36665 57.6768 8.86738 67.3613L17.1049 68.5869C17.7985 66.3835 19.8563 64.7861 22.287 64.7861C23.6265 64.7862 24.8522 65.2717 25.7993 66.0762L49.5694 40.252C48.989 39.5036 48.6 38.6 48.4748 37.6133L16.517 40.5654ZM59.2706 37.4238C59.2076 38.1129 59.0157 38.764 58.7199 39.3545L87.9426 64.9639C88.7876 64.4217 89.7919 64.1065 90.8701 64.1064C91.4922 64.1064 92.0896 64.2126 92.6463 64.4053L101.476 44.9072C99.7178 44.085 98.4714 42.3489 98.3498 40.3086L59.2706 37.4238ZM102.722 34.6445C103.062 34.578 103.413 34.543 103.772 34.543C106.772 34.543 109.205 36.9769 109.205 39.9795C109.205 40.1078 109.198 40.2353 109.19 40.3613L125.636 41.4082C119.022 29.0056 108.327 19.1126 95.3442 13.5254L102.722 34.6445ZM46.4418 13.4873C34.1379 18.7595 23.8808 27.8961 17.1947 39.373L48.4485 36.4863C48.6231 34.2812 50.1112 32.4469 52.1307 31.7676L46.4418 13.4873ZM58.5402 34.1582C58.918 34.7974 59.168 35.5204 59.257 36.293L98.3986 39.1816C98.6778 37.2829 99.9373 35.7038 101.646 34.9756L93.9508 12.9453C93.5684 12.7917 93.1838 12.6422 92.7976 12.4961L58.5402 34.1582ZM70.8486 8.49902C62.5842 8.49902 54.697 10.1162 47.4857 13.0508L53.2331 31.5215C53.4395 31.4977 53.6493 31.4854 53.862 31.4854C55.4482 31.4854 56.8753 32.1659 57.8684 33.251L91.4618 12.0078C85.0121 9.73554 78.0747 8.49907 70.8486 8.49902Z" fill="black"/>
</svg>
