<svg width="625" height="73" viewBox="0 0 625 73" fill="none" xmlns="http://www.w3.org/2000/svg">
<path d="M36.0719 3.3942C47.001 3.3942 56.3959 7.32019 62.6274 14.5968L54.5749 22.1607C49.6857 16.8948 43.6457 14.3096 36.6473 14.3095C22.7465 14.3095 12.6803 24.075 12.6801 37.8621C12.6801 51.6495 22.7463 61.4157 36.6473 61.4157C43.6457 61.4157 49.6857 58.8308 54.5749 53.4691L62.6274 61.1284C56.396 68.405 47.0011 72.331 35.9763 72.3311C15.4604 72.3311 0.121094 57.8729 0.121094 37.8621C0.121313 17.8516 15.4603 3.3942 36.0719 3.3942Z" fill="black"/>
<path fill-rule="evenodd" clip-rule="evenodd" d="M89.6324 19.6712C104.396 19.6714 112.928 26.6608 112.928 41.4055V71.3736H101.616V65.1499C98.74 69.5541 93.1794 72.0436 85.5102 72.0437C73.8143 72.0437 66.4319 65.6292 66.4318 56.7251C66.4318 48.2038 72.1838 41.501 87.7142 41.5009H100.944V40.7354C100.944 33.7459 96.7263 29.6291 88.194 29.6291C82.4419 29.6291 76.4982 31.544 72.6635 34.7035L67.9658 25.9904C73.4303 21.7776 81.3878 19.6712 89.6324 19.6712ZM88.5772 49.4485C80.4287 49.4486 78.2233 52.5119 78.2232 56.2459C78.2232 60.5543 81.8665 63.3314 88.0019 63.3315C93.8499 63.3315 98.9309 60.6499 100.944 55.3839V49.4485H88.5772Z" fill="black"/>
<path d="M201.797 20.6287H215.507V30.2028H201.797V54.5229C201.797 59.5015 204.291 62.1823 208.892 62.1823C211.385 62.1822 213.781 61.5117 215.603 60.0755L218.958 68.5968C216.082 70.8947 211.768 72.0437 207.454 72.0437C196.237 72.0437 189.814 66.1079 189.814 54.8102V30.2028H181.378V20.6287H189.814V8.9478H201.797V20.6287Z" fill="black"/>
<path fill-rule="evenodd" clip-rule="evenodd" d="M247.264 19.6712C263.178 19.6713 274.586 30.4905 274.586 45.8098C274.586 61.129 263.178 72.0437 247.264 72.0437C231.541 72.0437 220.037 61.129 220.037 45.8098C220.037 30.4905 231.541 19.6712 247.264 19.6712ZM247.264 29.82C238.635 29.82 232.116 36.0437 232.116 45.8098C232.116 55.5758 238.635 61.7995 247.264 61.7995C255.988 61.7994 262.506 55.5757 262.506 45.8098C262.506 36.0438 255.988 29.8201 247.264 29.82Z" fill="black"/>
<path fill-rule="evenodd" clip-rule="evenodd" d="M464.579 21.0114C470.778 21.0114 475.54 22.5754 478.864 25.7031C482.187 28.8307 483.848 33.4903 483.848 39.6815V71.3736H479.247V62.4072C477.878 64.8906 475.962 66.9543 473.495 68.5968C470.3 70.7032 466.209 71.7564 461.224 71.7564C457.517 71.7564 454.289 71.1823 451.541 70.0335C448.857 68.8207 446.779 67.1292 445.309 64.959C443.903 62.7889 443.201 60.2991 443.201 57.4906C443.201 54.9374 443.775 52.6394 444.926 50.5968C446.14 48.4904 448.122 46.799 450.87 45.5224C453.618 44.182 457.293 43.5112 461.895 43.5112H479.055V39.4906C479.055 34.831 477.777 31.2882 475.22 28.8626C472.728 26.4371 469.053 25.2239 464.195 25.2239C460.744 25.2239 457.516 25.8305 454.512 27.0432C451.572 28.1922 449.048 29.692 446.939 31.543L444.542 28.0961C447.035 25.8623 450.039 24.139 453.554 22.9263C457.069 21.6497 460.744 21.0115 464.579 21.0114ZM461.99 47.2454C456.813 47.2454 453.17 48.2027 451.061 50.1176C449.016 52.0325 447.994 54.4265 447.994 57.2987C447.994 60.4903 449.208 63.0441 451.636 64.959C454.065 66.8739 457.485 67.8313 461.895 67.8313C466.113 67.8313 469.66 66.8739 472.536 64.959C475.476 63.0441 477.649 60.2669 479.055 56.6287V47.2454H461.99Z" fill="black"/>
<path fill-rule="evenodd" clip-rule="evenodd" d="M563.467 21.0114C568.005 21.0114 572.063 22.0646 575.642 24.171C579.285 26.2774 582.13 29.2454 584.175 33.0751C586.284 36.841 587.338 41.2138 587.338 46.1925C587.338 46.384 587.306 46.6073 587.242 46.8626V47.5327H544.216C544.346 51.2311 545.232 54.5506 546.881 57.4906C548.734 60.6182 551.259 63.0754 554.455 64.8626C557.65 66.586 561.294 67.4475 565.384 67.4476C568.58 67.4476 571.551 66.8735 574.3 65.7246C577.112 64.5756 579.477 62.82 581.394 60.4583L584.175 63.6179C582.002 66.2987 579.253 68.3419 575.93 69.7461C572.671 71.0865 569.123 71.7564 565.288 71.7564C560.239 71.7564 555.765 70.6716 551.866 68.5014C548.032 66.3312 544.996 63.3307 542.759 59.5009C540.586 55.6713 539.5 51.299 539.5 46.3844C539.5 41.4056 540.522 37.0329 542.568 33.2669C544.677 29.4371 547.552 26.4367 551.195 24.2664C554.838 22.0962 558.929 21.0114 563.467 21.0114ZM563.467 25.2239C559.76 25.2239 556.436 26.118 553.496 27.9052C550.62 29.6286 548.352 32.0542 546.69 35.1818C545.301 37.742 544.496 40.6143 544.267 43.7985H582.696C582.511 40.6325 581.696 37.7601 580.244 35.1818C578.582 32.0542 576.313 29.6286 573.437 27.9052C570.561 26.118 567.238 25.2239 563.467 25.2239Z" fill="black"/>
<path d="M605.043 21.3942H620.957V25.5112H605.043V57.6815C605.043 60.873 605.842 63.3311 607.44 65.0545C609.038 66.7778 611.339 67.6394 614.342 67.6394C617.474 67.6394 620.062 66.7136 622.107 64.8626L624.121 68.2141C622.843 69.4268 621.277 70.32 619.423 70.8944C617.634 71.4689 615.78 71.7564 613.863 71.7564C609.453 71.7563 606.065 70.544 603.701 68.1186C601.4 65.6931 600.249 62.3735 600.249 58.1607V25.5112H591.046V21.3942H600.249V10.4799H605.043V21.3942Z" fill="black"/>
<path d="M154.479 19.6712C166.75 19.6712 175.858 26.6606 175.858 42.0755V71.3736H163.875V43.6076C163.875 34.5118 159.368 30.1074 151.699 30.1074C143.167 30.1075 137.415 35.2778 137.415 45.5224V71.3736H125.431V20.2459H136.839V26.8523C140.77 22.1608 147.002 19.6713 154.479 19.6712Z" fill="black"/>
<path d="M312.218 19.6712C324.489 19.6712 333.597 26.6606 333.597 42.0755V71.3736H321.613V43.6076C321.613 34.5118 317.107 30.1074 309.437 30.1074C300.905 30.1075 295.153 35.2778 295.153 45.5224V71.3736H283.169V20.2459H294.578V26.8523C298.508 22.1608 304.74 19.6713 312.218 19.6712Z" fill="black"/>
<path d="M369.834 64.6357L390.858 4.35162H395.556L416.446 64.7759L437.067 4.35162H441.861L419.14 71.3736H413.963L393.111 11.223L372.26 71.3736H367.083L344.267 4.35162H349.443L369.834 64.6357Z" fill="black"/>
<path d="M505.516 71.3736H500.722V0.331055H505.516V71.3736Z" fill="black"/>
<path d="M527.637 71.3736H522.844V0.331055H527.637V71.3736Z" fill="black"/>
</svg>
