<svg width="20" height="20" viewBox="0 0 20 20" fill="none" xmlns="http://www.w3.org/2000/svg">
<path fill-rule="evenodd" clip-rule="evenodd" d="M10.0014 0.483398C15.2575 0.483398 19.5184 4.74747 19.5184 10.0075C19.5184 15.2675 15.2575 19.5315 10.0014 19.5315C4.74525 19.5315 0.484314 15.2675 0.484314 10.0075C0.484314 4.74747 4.74525 0.483399 10.0014 0.483398ZM7.11633 14.3882C7.04166 14.4585 6.94794 14.5087 6.84357 14.53L6.96601 18.3544C7.913 18.6993 8.9352 18.8876 10.0014 18.8876C11.2603 18.8876 12.4579 18.6252 13.5427 18.1522L7.11633 14.3882ZM3.43051 15.9756C4.35111 16.9901 5.50312 17.7903 6.80303 18.2932L6.68288 14.5393C6.52376 14.5259 6.38366 14.4463 6.28983 14.3281L3.43051 15.9756ZM7.2917 14.0221C7.28502 14.1086 7.25886 14.1896 7.21748 14.2608L13.723 18.071C13.7803 18.0445 13.8373 18.0173 13.8939 17.9896L12.4514 14.3194C12.4218 14.3242 12.3915 14.3268 12.3606 14.3268C12.0874 14.3268 11.8596 14.1322 11.8083 13.8739L7.2917 14.0221ZM12.9229 13.7443C12.9231 13.7506 12.9235 13.757 12.9235 13.7634C12.9235 13.9869 12.7935 14.18 12.605 14.271L14.0383 17.9175C16.1427 16.8398 17.7603 14.9459 18.4744 12.6531L12.9229 13.7443ZM3.39886 10.4213C3.32152 10.4734 3.23058 10.5067 3.13243 10.515L2.86102 15.2806C3.00662 15.4778 3.16024 15.6686 3.32128 15.8527L6.20875 14.1891C6.18242 14.1239 6.16781 14.0527 6.1678 13.9781C6.1678 13.8362 6.22021 13.7064 6.30681 13.6073L3.39886 10.4213ZM1.13287 9.70418C1.1295 9.80486 1.12776 9.90596 1.12776 10.0075C1.12776 11.8901 1.71321 13.6358 2.71178 15.0724L2.97174 10.5058C2.71498 10.4534 2.52173 10.2262 2.52172 9.95382C2.52172 9.9394 2.52241 9.9251 2.52347 9.91096L1.13287 9.70418ZM7.38033 10.3042C7.28987 10.3692 7.17953 10.408 7.06003 10.4096L6.84115 13.4255C7.06143 13.4693 7.23525 13.6418 7.28147 13.8614L11.7998 13.7131C11.8075 13.627 11.8344 13.5465 11.8763 13.4759L7.38033 10.3042ZM13.3647 10.1595C13.2637 10.3105 13.0918 10.4098 12.8967 10.4098C12.888 10.4098 12.8795 10.4095 12.8709 10.4092L12.5248 13.2245C12.6992 13.2776 12.8375 13.4132 12.8948 13.5859L18.4281 12.4982L13.3647 10.1595ZM3.64562 9.99884C3.63621 10.118 3.59001 10.2266 3.51807 10.3133L6.42884 13.5024C6.50281 13.4553 6.58852 13.4251 6.68059 13.417L6.90014 10.3888C6.68676 10.3289 6.52467 10.1466 6.49457 9.92214L3.64562 9.99884ZM7.61282 9.90017C7.60255 10.0089 7.56134 10.1085 7.49819 10.1904L11.9776 13.3504C12.0781 13.2571 12.2127 13.2001 12.3606 13.2001C12.3623 13.2001 12.364 13.2001 12.3657 13.2001L12.7127 10.379C12.5083 10.3082 12.3574 10.1232 12.3363 9.90017H7.61282ZM14.9357 6.12794C14.8692 6.15562 14.7962 6.17107 14.7196 6.17107C14.6903 6.17107 14.6614 6.16867 14.6333 6.16433L13.1849 9.36248C13.3495 9.46081 13.4597 9.64078 13.4597 9.84652C13.4597 9.90493 13.4507 9.96123 13.4342 10.0142L18.4876 12.3483L14.9357 6.12794ZM15.2379 5.82802C15.2017 5.91333 15.1449 5.98771 15.0739 6.04531L18.5979 12.2172C18.7787 11.5107 18.875 10.7703 18.875 10.0075C18.875 8.56511 18.5313 7.20315 17.9215 5.99894L15.2379 5.82802ZM3.53841 9.62034C3.58526 9.68406 3.61907 9.75795 3.63579 9.83817L6.49578 9.7612C6.53686 9.49052 6.77053 9.28308 7.05248 9.28308C7.05784 9.28308 7.06318 9.28334 7.06851 9.28349L7.51462 5.73663C7.40669 5.72244 7.30836 5.67793 7.22866 5.61154L3.53841 9.62034ZM2.23334 5.71155C1.59936 6.85719 1.21099 8.15788 1.13961 9.54243L2.55849 9.75352C2.6392 9.54127 2.84433 9.39038 3.08475 9.39038C3.21281 9.39038 3.33081 9.43329 3.4254 9.50536L7.1205 5.49143C7.07643 5.42557 7.0459 5.34988 7.03282 5.26835L2.23334 5.71155ZM8.02216 5.53753C7.93671 5.64071 7.8153 5.7129 7.67707 5.73474L7.22718 9.31085C7.41948 9.37364 7.56607 9.5372 7.605 9.73923H12.3441C12.3652 9.62982 12.4177 9.53163 12.4922 9.45467L8.02216 5.53753ZM8.14715 5.24773C8.14069 5.30043 8.127 5.35085 8.10702 5.39802L12.6222 9.35452C12.7034 9.30904 12.797 9.28309 12.8967 9.28308C12.9448 9.28308 12.9916 9.28922 13.0362 9.3006L14.4784 6.11661C14.3125 6.0377 14.1911 5.88009 14.1629 5.69187L8.14715 5.24773ZM14.6241 5.05241C14.6552 5.04709 14.6871 5.04419 14.7196 5.04418C15.0306 5.04418 15.2827 5.29647 15.2827 5.60763C15.2827 5.6285 15.2814 5.64908 15.2792 5.66936L17.8347 5.83206C16.889 4.05895 15.3599 2.64467 13.5037 1.84591L14.6241 5.05241ZM6.51181 1.84038C4.75262 2.59412 3.28614 3.90038 2.33018 5.54117L7.03026 5.107C7.05663 4.89831 7.19691 4.72519 7.38693 4.6522L6.51181 1.84038ZM8.07765 4.89942C8.11007 4.95621 8.1329 5.01914 8.14392 5.08611L14.162 5.53026C14.1879 5.34176 14.3069 5.18302 14.4711 5.10201L13.3045 1.76301C13.2498 1.74104 13.1949 1.71961 13.1397 1.69871L8.07765 4.89942ZM10.0014 1.12731C8.81976 1.12731 7.69211 1.35843 6.66106 1.77797L7.54453 4.61675C7.55906 4.61562 7.57375 4.615 7.58857 4.615C7.7398 4.615 7.87697 4.6748 7.97811 4.7719L12.9487 1.62889C12.0265 1.30403 11.0346 1.12731 10.0014 1.12731Z" fill="#666666"/>
<path d="M19.1807 10C19.1807 4.92593 15.0704 0.812556 10 0.812556C4.92963 0.812556 0.819277 4.92593 0.819277 10C0.819277 15.0741 4.92963 19.1875 10 19.1875C15.0704 19.1875 19.1807 15.0741 19.1807 10ZM20 10C20 15.527 15.5228 20.0074 10 20.0074C4.47715 20.0074 0 15.527 0 10C0 4.47313 4.47715 -0.00732422 10 -0.00732422C15.5228 -0.00732422 20 4.47313 20 10Z" fill="#666666"/>
<path d="M15.4855 5.62786C15.4855 6.05713 15.1377 6.40513 14.7088 6.40513C14.2798 6.40513 13.9321 6.05713 13.9321 5.62786C13.9321 5.19858 14.2798 4.85059 14.7088 4.85059C15.1377 4.85059 15.4855 5.19858 15.4855 5.62786Z" fill="#666666"/>
<path d="M8.34954 5.1906C8.34954 5.61988 8.0018 5.96787 7.57284 5.96787C7.14388 5.96787 6.79614 5.61988 6.79614 5.1906C6.79614 4.76133 7.14388 4.41333 7.57284 4.41333C8.0018 4.41333 8.34954 4.76133 8.34954 5.1906Z" fill="#666666"/>
<path d="M7.81548 9.85442C7.81548 10.2837 7.46774 10.6317 7.03878 10.6317C6.60982 10.6317 6.26208 10.2837 6.26208 9.85442C6.26208 9.42514 6.60982 9.07715 7.03878 9.07715C7.46774 9.07715 7.81548 9.42514 7.81548 9.85442Z" fill="#666666"/>
<path d="M3.83495 9.95159C3.83495 10.3809 3.48721 10.7289 3.05825 10.7289C2.6293 10.7289 2.28156 10.3809 2.28156 9.95159C2.28156 9.52231 2.6293 9.17432 3.05825 9.17432C3.48721 9.17432 3.83495 9.52231 3.83495 9.95159Z" fill="#666666"/>
<path d="M13.6408 9.85442C13.6408 10.2837 13.2931 10.6317 12.8641 10.6317C12.4351 10.6317 12.0874 10.2837 12.0874 9.85442C12.0874 9.42514 12.4351 9.07715 12.8641 9.07715C13.2931 9.07715 13.6408 9.42514 13.6408 9.85442Z" fill="#666666"/>
<path d="M13.1068 13.7406C13.1068 14.1699 12.7591 14.5179 12.3301 14.5179C11.9011 14.5179 11.5534 14.1699 11.5534 13.7406C11.5534 13.3114 11.9011 12.9634 12.3301 12.9634C12.7591 12.9634 13.1068 13.3114 13.1068 13.7406Z" fill="#666666"/>
<path d="M7.52428 13.9836C7.52428 14.4128 7.17654 14.7608 6.74759 14.7608C6.31863 14.7608 5.97089 14.4128 5.97089 13.9836C5.97089 13.5543 6.31863 13.2063 6.74759 13.2063C7.17654 13.2063 7.52428 13.5543 7.52428 13.9836Z" fill="#666666"/>
</svg>
