<svg width="140" height="141" viewBox="0 0 140 141" fill="none" xmlns="http://www.w3.org/2000/svg">
<path fill-rule="evenodd" clip-rule="evenodd" d="M70 0.5625C108.66 0.5625 140 31.9026 140 70.5625C140 109.222 108.66 140.562 70 140.562C31.34 140.562 1.4095e-06 109.222 0 70.5625C0 31.9026 31.34 0.562628 70 0.5625ZM51.2449 102.094C50.404 103.013 49.2525 103.642 47.9554 103.814L48.7626 129C55.3914 131.413 62.5467 132.729 70.0098 132.729C78.8218 132.729 87.205 130.895 94.7986 127.586L51.2449 102.094ZM24.0138 112.361C30.458 119.457 38.5219 125.055 47.6211 128.572L46.8295 103.847C45.1574 103.724 43.6957 102.846 42.7846 101.552L24.0138 112.361ZM52.6639 98.6426C52.6278 99.5677 52.3606 100.432 51.9183 101.183L96.0613 127.018C96.4625 126.832 96.8619 126.642 97.2584 126.448L87.641 101.999C87.2153 102.106 86.7698 102.164 86.3109 102.164C83.6456 102.164 81.4296 100.246 80.9651 97.7148L52.6639 98.6426ZM91.7417 96.501C91.7447 96.5761 91.7485 96.6517 91.7485 96.7275C91.7485 98.8739 90.5036 100.728 88.6974 101.612L98.2689 125.944C112.999 118.406 124.323 105.158 129.321 89.1201L91.7417 96.501ZM24.7234 74.5293C23.9131 75.154 22.9227 75.5552 21.8423 75.6406L20.0275 107.5C21.0465 108.879 22.1216 110.213 23.2486 111.501L42.2353 100.569C41.9531 99.9118 41.7965 99.1876 41.7965 98.4268C41.7965 97.0184 42.3312 95.7343 43.2097 94.7686L24.7234 74.5293ZM7.92969 68.4932C7.90606 69.1973 7.89451 69.9044 7.89451 70.6143C7.89451 83.7828 11.9928 95.9942 18.9828 106.043L20.7155 75.6143C18.0398 75.2742 15.9709 72.9908 15.9708 70.2227C15.9708 70.0434 15.9802 69.8662 15.9972 69.6914L7.92969 68.4932ZM52.918 73.5752C51.9615 74.4407 50.6964 74.9708 49.307 74.9795L47.9945 93.0439C50.3388 93.3724 52.2017 95.1948 52.5926 97.5186L80.8772 96.5908C80.9019 95.5893 81.1963 94.6551 81.6922 93.8584L52.918 73.5752ZM94.7693 72.2383C93.8325 73.8757 92.0706 74.9804 90.049 74.9805C90.001 74.9805 89.953 74.9778 89.9053 74.9766L87.8697 91.5186C89.6906 92.0626 91.1104 93.5341 91.5804 95.3857L128.997 88.0371L94.7693 72.2383ZM26.8353 70.5186C26.7691 71.751 26.2921 72.8728 25.5394 73.7529L44.0501 94.0195C44.853 93.4386 45.8205 93.0723 46.8696 93.0029L48.185 74.8711C45.8678 74.4009 44.0858 72.4573 43.8596 70.0605L26.8353 70.5186ZM54.6986 69.8643C54.6365 70.932 54.2653 71.9158 53.6745 72.7305L82.3832 92.9688C83.3729 91.9348 84.7666 91.2911 86.3109 91.291C86.4622 91.291 86.6123 91.2974 86.7604 91.3096L88.7893 74.8311C86.4946 74.2865 84.7634 72.29 84.6221 69.8643H54.6986ZM105.344 44.8672C104.624 45.2184 103.816 45.417 102.962 45.417C102.539 45.417 102.128 45.3666 101.733 45.2754L92.8479 64.8809C94.4285 65.8318 95.4855 67.5641 95.4856 69.543C95.4856 70.1238 95.3933 70.6833 95.2247 71.208L129.414 86.9883L105.344 44.8672ZM108.187 41.4766C107.867 42.5981 107.196 43.57 106.299 44.2686L130.186 86.0713C131.452 81.1297 132.125 75.9504 132.125 70.6143C132.125 60.5253 129.72 50.9984 125.451 42.5752L108.187 41.4766ZM25.7026 66.8916C26.2572 67.6056 26.6388 68.4604 26.7815 69.3945L43.8694 68.9346C44.172 66.2185 46.475 64.1066 49.2718 64.1064C49.4018 64.1064 49.531 64.1121 49.6588 64.1211L52.402 42.3242C51.2986 42.2015 50.2956 41.7485 49.4926 41.0664L25.7026 66.8916ZM57.2572 40.3125C56.3641 41.4298 55.0412 42.1881 53.5376 42.333L50.769 64.3164C52.793 64.895 54.3338 66.6161 54.6488 68.7383H84.672C84.8485 67.5493 85.4092 66.4858 86.2249 65.6787L57.2572 40.3125ZM15.6336 40.5654C11.1958 48.5788 8.47728 57.6767 7.97758 67.3613L16.221 68.5859C16.9154 66.383 18.9751 64.7863 21.4074 64.7861C22.748 64.7861 23.9748 65.2718 24.9227 66.0762L48.7128 40.251C48.1322 39.5028 47.7425 38.5996 47.6172 37.6133L15.6336 40.5654ZM58.4221 37.4238C58.359 38.1129 58.167 38.764 57.8709 39.3545L87.1181 64.9639C87.9639 64.4215 88.9697 64.1064 90.049 64.1064C90.6717 64.1065 91.2695 64.2125 91.8267 64.4053L100.664 44.9072C98.904 44.0851 97.6567 42.3491 97.535 40.3086L58.4221 37.4238ZM101.911 34.6445C102.251 34.578 102.603 34.543 102.962 34.543C105.964 34.5431 108.398 36.977 108.399 39.9795C108.399 40.1078 108.392 40.2352 108.383 40.3613L124.843 41.4082C118.223 29.0058 107.52 19.1126 94.5269 13.5254L101.911 34.6445ZM45.5825 13.4873C33.2684 18.7596 23.0025 27.8961 16.3109 39.373L47.5909 36.4863C47.7656 34.2813 49.2552 32.447 51.2762 31.7676L45.5825 13.4873ZM57.6921 34.1582C58.0701 34.7973 58.3194 35.5205 58.4084 36.293L97.5829 39.1816C97.8623 37.2826 99.1235 35.7027 100.834 34.9746L93.1323 12.9453C92.7496 12.7917 92.3646 12.6422 91.9782 12.4961L57.6921 34.1582ZM70.0098 8.49902C61.7385 8.49904 53.8446 10.1162 46.6272 13.0508L52.3795 31.5215C52.5863 31.4976 52.7967 31.4854 53.0099 31.4854C54.5972 31.4854 56.0258 32.1651 57.0197 33.25L90.6412 12.0078C84.186 9.73549 77.2421 8.49902 70.0098 8.49902Z" fill="black"/>
</svg>
