<svg width="20" height="20" viewBox="0 0 20 20" fill="none" xmlns="http://www.w3.org/2000/svg">
<path d="M10.7407 5.93762C11.3084 6.02573 11.7849 6.21752 12.1697 6.51324C12.7177 6.93447 13.0397 7.52654 13.1328 8.2865H11.3469C11.2952 7.99489 11.149 7.76808 10.9082 7.60754C10.6674 7.44701 10.3498 7.36597 9.95245 7.36597C9.55512 7.36597 9.23457 7.44108 9.02039 7.59277C8.8062 7.74447 8.69989 7.94482 8.69989 8.19373C8.69989 8.36013 8.76486 8.50593 8.8963 8.6311C9.02629 8.75629 9.21685 8.86385 9.46796 8.95074C9.71907 9.03911 10.0264 9.12455 10.3927 9.2085C10.9776 9.32337 11.4946 9.45882 11.9437 9.61493C12.3927 9.77104 12.7472 10.0008 13.0087 10.3027C13.2701 10.6047 13.4001 11.0318 13.4001 11.5841C13.4105 12.0834 13.2819 12.5267 13.0161 12.9125C12.7502 13.2984 12.3765 13.5974 11.8964 13.811C11.5581 13.9615 11.1729 14.0584 10.7407 14.1027V15.5555H9.25922V14.0573C8.9281 14.0017 8.62345 13.9137 8.34534 13.7933C7.82835 13.5694 7.42068 13.2572 7.12378 12.8566C6.8254 12.456 6.65106 11.995 6.59937 11.4736H8.4798C8.5315 11.6931 8.62601 11.8934 8.7619 12.0745C8.8978 12.2571 9.08245 12.4 9.31879 12.5046C9.55365 12.6091 9.83282 12.6607 10.1563 12.6607C10.4798 12.6607 10.725 12.6165 10.9244 12.5281C11.1224 12.4398 11.2686 12.322 11.3632 12.1761C11.4577 12.0303 11.5035 11.8742 11.5035 11.7078C11.5035 11.4575 11.4355 11.266 11.2996 11.1305C11.1637 10.995 10.9673 10.8889 10.7117 10.8109C10.4562 10.7328 10.1504 10.6577 9.79443 10.584C9.41776 10.5119 9.05583 10.4206 8.70575 10.3101C8.35567 10.2011 8.04252 10.0627 7.7663 9.89624C7.49009 9.72982 7.27001 9.51628 7.10901 9.25562C6.94652 8.99493 6.8667 8.67824 6.8667 8.30267C6.8667 7.84464 6.98936 7.43373 7.23456 7.06848C7.47976 6.70471 7.83574 6.41454 8.29956 6.20099C8.58525 6.06987 8.90491 5.97935 9.25922 5.92896V4.44434H10.7407V5.93762Z" fill="#666666"/>
<path fill-rule="evenodd" clip-rule="evenodd" d="M10 0C15.5228 0 20 4.47715 20 10C20 15.5228 15.5228 20 10 20C4.47715 20 0 15.5228 0 10C0 4.47715 4.47715 0 10 0ZM10 1.3468C5.22097 1.3468 1.3468 5.22097 1.3468 10C1.3468 14.779 5.22097 18.6532 10 18.6532C14.779 18.6532 18.6532 14.779 18.6532 10C18.6532 5.22097 14.779 1.3468 10 1.3468Z" fill="#666666"/>
</svg>
