<svg width="932" height="321" viewBox="0 0 932 321" fill="none" xmlns="http://www.w3.org/2000/svg">
<path d="M171.945 95.2109C181.033 96.6207 188.662 99.6893 194.821 104.421C203.594 111.16 208.749 120.634 210.239 132.793H181.65C180.822 128.127 178.481 124.498 174.626 121.93C170.772 119.361 165.687 118.064 159.326 118.064C152.965 118.065 147.834 119.266 144.405 121.693C140.976 124.121 139.274 127.326 139.274 131.309C139.274 133.971 140.314 136.304 142.418 138.307C144.499 140.31 147.55 142.031 151.57 143.421C155.59 144.835 160.509 146.202 166.374 147.545C175.738 149.383 184.014 151.55 191.203 154.048C198.391 156.546 204.067 160.222 208.252 165.053C212.438 169.884 214.519 176.718 214.519 185.555C214.685 193.543 212.627 200.636 208.37 206.81C204.114 212.983 198.132 217.768 190.447 221.185C185.031 223.592 178.864 225.144 171.945 225.852V249.097H148.228V225.126C142.927 224.236 138.05 222.828 133.598 220.901C125.322 217.32 118.796 212.323 114.043 205.914C109.266 199.505 106.475 192.129 105.647 183.787H135.751C136.578 187.298 138.091 190.503 140.267 193.401C142.442 196.323 145.399 198.609 149.182 200.282C152.942 201.955 157.411 202.78 162.59 202.78C167.768 202.78 171.694 202.073 174.886 200.659C178.055 199.245 180.396 197.36 181.91 195.027C183.423 192.695 184.156 190.197 184.156 187.534C184.156 183.528 183.068 180.465 180.893 178.297C178.717 176.129 175.572 174.432 171.481 173.183C167.39 171.934 162.495 170.732 156.796 169.554C150.766 168.399 144.972 166.938 139.368 165.171C133.764 163.427 128.75 161.212 124.328 158.549C119.907 155.886 116.384 152.469 113.806 148.299C111.205 144.128 109.927 139.061 109.927 133.052C109.927 125.723 111.891 119.149 115.816 113.305C119.741 107.484 125.44 102.842 132.865 99.4248C137.439 97.3269 142.556 95.8787 148.228 95.0723V71.3184H171.945V95.2109Z" fill="black"/>
<path fill-rule="evenodd" clip-rule="evenodd" d="M160.087 0.208984C248.501 0.208984 320.174 71.8434 320.174 160.209C320.174 248.574 248.501 320.209 160.087 320.209C71.6737 320.209 0.000264103 248.574 0 160.209C0 71.8434 71.6735 0.208984 160.087 0.208984ZM160.087 21.7578C83.5811 21.7578 21.5606 83.7445 21.5606 160.209C21.5608 236.673 83.5812 298.66 160.087 298.66C236.593 298.66 298.614 236.673 298.614 160.209C298.614 83.7445 236.593 21.7578 160.087 21.7578Z" fill="black"/>
<path d="M451.526 103.289C470.897 103.289 487.066 110.329 497.631 123.129L480.983 138.488C473.459 129.848 464.013 125.368 452.807 125.368C431.836 125.368 416.948 140.089 416.948 161.209C416.948 182.329 431.836 197.049 452.807 197.049C464.013 197.049 473.459 192.569 480.983 183.769L497.631 199.129C487.066 212.089 470.897 219.129 451.366 219.129C416.627 219.129 390.694 194.969 390.693 161.209C390.693 127.449 416.627 103.289 451.526 103.289Z" fill="black"/>
<path d="M564.795 166.969C564.795 188.249 574.08 197.049 589.769 197.049C605.617 197.049 614.742 188.248 614.742 166.969V105.209H640.356V167.929C640.356 200.889 621.466 219.129 589.608 219.129C557.751 219.129 538.861 200.889 538.861 167.929V105.209H564.795V166.969Z" fill="black"/>
<path d="M732.26 103.289C746.348 103.289 760.756 106.649 771.161 113.209L763.157 132.889C752.751 126.969 742.025 124.089 732.1 124.089C716.732 124.089 710.808 129.849 710.808 136.889C710.808 157.528 775.963 143.289 775.964 184.408C775.964 203.128 760.435 219.129 728.417 219.129C710.648 219.129 692.718 213.849 682.793 206.169L691.598 186.648C701.043 193.528 715.13 198.328 728.578 198.328C743.946 198.328 750.19 193.208 750.19 186.328C750.189 165.369 685.035 179.768 685.034 138.169C685.034 119.129 700.403 103.289 732.26 103.289Z" fill="black"/>
<path fill-rule="evenodd" clip-rule="evenodd" d="M870.207 105.209C906.866 105.209 932 127.289 932 161.209C932 195.129 906.866 217.209 870.207 217.209H819.299V105.209H870.207ZM845.233 195.929H868.926C891.177 195.929 905.745 182.649 905.745 161.209C905.745 139.769 891.178 126.488 868.926 126.488H845.233V195.929Z" fill="black"/>
</svg>
