<svg width="320" height="321" viewBox="0 0 320 321" fill="none" xmlns="http://www.w3.org/2000/svg">
<path d="M171.852 95.2104C180.935 96.6202 188.559 99.6888 194.715 104.42C203.483 111.16 208.635 120.633 210.124 132.792H181.551C180.724 128.127 178.384 124.498 174.531 121.929C170.679 119.361 165.597 118.064 159.239 118.064C152.882 118.064 147.753 119.266 144.326 121.693C140.899 124.12 139.198 127.326 139.198 131.308C139.198 133.971 140.238 136.303 142.341 138.306C144.421 140.309 147.47 142.03 151.487 143.42C155.505 144.834 160.422 146.201 166.283 147.544C175.642 149.382 183.914 151.55 191.099 154.047C198.283 156.545 203.955 160.222 208.139 165.052C212.322 169.883 214.402 176.717 214.402 185.554C214.568 193.543 212.511 200.635 208.257 206.809C204.003 212.983 198.024 217.767 190.343 221.184C184.93 223.592 178.766 225.143 171.852 225.851V249.096H148.147V225.125C142.85 224.235 137.975 222.828 133.525 220.901C125.254 217.319 118.731 212.323 113.98 205.914C109.206 199.504 106.417 192.129 105.59 183.787H135.677C136.504 187.298 138.016 190.502 140.19 193.401C142.365 196.323 145.319 198.609 149.101 200.282C152.858 201.955 157.325 202.78 162.501 202.78C167.677 202.78 171.6 202.073 174.791 200.659C177.958 199.245 180.298 197.36 181.811 195.027C183.323 192.694 184.056 190.196 184.056 187.534C184.056 183.528 182.968 180.464 180.794 178.296C178.62 176.128 175.476 174.431 171.388 173.182C167.299 171.933 162.407 170.731 156.711 169.553C150.684 168.399 144.893 166.938 139.292 165.17C133.691 163.427 128.68 161.211 124.261 158.548C119.841 155.886 116.32 152.469 113.744 148.298C111.144 144.127 109.867 139.06 109.867 133.051C109.867 125.723 111.83 119.148 115.753 113.304C119.676 107.484 125.372 102.841 132.793 99.4243C137.364 97.3264 142.479 95.8782 148.147 95.0718V71.3179H171.852V95.2104Z" fill="black"/>
<path fill-rule="evenodd" clip-rule="evenodd" d="M160 0.208496C248.366 0.208496 320 71.8429 320 160.208C320 248.574 248.366 320.208 160 320.208C71.6344 320.208 0 248.574 0 160.208C0 71.8429 71.6344 0.208496 160 0.208496ZM160 21.7573C83.5355 21.7573 21.5488 83.744 21.5488 160.208C21.5488 236.673 83.5355 298.66 160 298.66C236.464 298.66 298.451 236.673 298.451 160.208C298.451 83.744 236.464 21.7573 160 21.7573Z" fill="black"/>
</svg>
