<svg width="542" height="117" viewBox="0 0 542 117" fill="none" xmlns="http://www.w3.org/2000/svg">
<path d="M61.2803 0.289062C80.6403 0.289062 96.8004 7.3289 107.36 20.1289L90.7207 35.4883C83.2007 26.8483 73.7605 22.3682 62.5605 22.3682C41.6005 22.3682 26.7207 37.089 26.7207 58.209C26.7209 79.3288 41.6007 94.0488 62.5605 94.0488C73.7605 94.0488 83.2007 89.5685 90.7207 80.7686L107.36 96.1289C96.8003 109.089 80.64 116.129 61.1201 116.129C26.4004 116.129 0.480678 91.9687 0.480469 58.209C0.480469 24.449 26.4004 0.289156 61.2803 0.289062Z" fill="black"/>
<path d="M174.487 63.9688C174.487 85.2486 183.767 94.0488 199.447 94.0488C215.287 94.0487 224.407 85.2484 224.407 63.9688V2.20898H250.007V64.9287C250.007 97.8885 231.127 116.129 199.287 116.129C167.447 116.129 148.567 97.8886 148.567 64.9287V2.20898H174.487V63.9688Z" fill="black"/>
<path d="M341.861 0.289062C355.941 0.28913 370.341 3.64905 380.741 10.209L372.741 29.8887C362.341 23.9687 351.621 21.0889 341.701 21.0889C326.341 21.0889 320.421 26.8487 320.421 33.8887C320.421 54.5285 385.541 40.2887 385.541 81.4082C385.541 100.128 370.021 116.129 338.021 116.129C320.261 116.129 302.341 110.849 292.421 103.169L301.221 83.6484C310.661 90.5284 324.741 95.3281 338.181 95.3281C353.541 95.3281 359.781 90.2081 359.781 83.3281C359.78 62.3689 294.662 76.7682 294.661 35.1689C294.661 16.1289 310.021 0.289062 341.861 0.289062Z" fill="black"/>
<path fill-rule="evenodd" clip-rule="evenodd" d="M479.732 2.20898C516.372 2.20913 541.492 24.2891 541.492 58.209C541.492 92.1286 516.372 114.209 479.732 114.209H428.853V2.20898H479.732ZM454.772 92.9287H478.452C500.692 92.9287 515.252 79.6487 515.252 58.209C515.252 36.769 500.692 23.4883 478.452 23.4883H454.772V92.9287Z" fill="black"/>
</svg>
