<svg width="3044" height="3044" viewBox="0 0 3044 3044" fill="none" xmlns="http://www.w3.org/2000/svg">
<path d="M1631.35 575.58V744.577C1631.35 750.766 1735.53 769.773 1750.51 774.338C1885.86 815.6 2007.52 911.116 2056.06 1047.37C2077.38 1107.2 2083.12 1162.24 2086.62 1225.23H1858.98C1850.8 1125.24 1813.46 1038.81 1719.82 993.859C1706.82 987.626 1652.45 966.776 1641.33 966.995C1637.17 967.083 1631.35 970.243 1631.35 972.833V1389.84C1704.45 1417.01 1784.83 1430.09 1857.54 1461.52C2228.19 1621.69 2195.71 2087.51 1845.68 2245.67C1776.73 2276.83 1706.16 2291.27 1631.3 2300.67V2467.47H1421.18V2298.47C1421.18 2292.15 1314.93 2271.43 1299.66 2266.69C1191.35 2233.46 1089.22 2171.97 1023.65 2078.16C958.071 1984.36 932.856 1875.01 930.93 1760.75H1158.57C1160.8 1760.75 1158.57 1796.88 1159.79 1805.62C1177.39 1929.53 1268.44 2032.51 1390.54 2061.44C1396.4 2062.84 1421.22 2070.52 1421.22 2061.44V1587.37C1421.22 1581 1315.94 1555.24 1300.75 1550.14C1131.34 1493.3 995.324 1399.58 983.242 1205.7C966.345 934.425 1171.7 775.48 1421.22 746.772V575.58H1631.35ZM1421.22 1339.36V972.833C1421.22 958.523 1366.24 976.433 1357.62 979.286C1255.31 1012.82 1192.75 1091.66 1213.11 1203.5C1228.69 1289.32 1348.99 1322.2 1421.27 1339.36H1421.22ZM1631.35 2076.8C1775.55 2069.95 1919.09 1973.78 1888.49 1812.38C1871.85 1724.59 1788.11 1683.59 1711.28 1656.46C1698.28 1651.85 1650.39 1635.43 1640.37 1635.13C1636.64 1634.99 1631.35 1637.01 1631.35 1640.04V2076.8Z" fill="black"/>
<path d="M2811.7 1521.52C2811.7 808.974 2234.07 231.342 1521.52 231.342C808.974 231.342 231.342 808.974 231.342 1521.52C231.342 2234.07 808.974 2811.7 1521.52 2811.7C2234.07 2811.7 2811.7 2234.07 2811.7 1521.52ZM3043.04 1521.52C3043.04 2361.83 2361.83 3043.04 1521.52 3043.04C681.208 3043.04 0 2361.83 0 1521.52C2.44652e-05 681.208 681.208 2.44588e-05 1521.52 0C2361.83 0 3043.04 681.208 3043.04 1521.52Z" fill="black"/>
</svg>
