<svg width="32" height="32" viewBox="0 0 32 32" fill="none" xmlns="http://www.w3.org/2000/svg">
<rect width="32" height="32" fill="#40FB50"/>
<path d="M7 26L12.9639 6H15.7442L9.78031 26H7Z" fill="#081619"/>
<path d="M20.1047 23.8244C19.0428 23.8244 18.1198 23.6621 17.3356 23.3375C16.5515 23.0129 15.9332 22.5602 15.4828 21.9794C15.0303 21.3986 14.7659 20.7302 14.6875 19.9743H17.5395C17.6179 20.2924 17.7613 20.5828 17.9674 20.8455C18.1735 21.1103 18.4536 21.3174 18.812 21.469C19.1683 21.6206 19.5917 21.6954 20.0823 21.6954C20.573 21.6954 20.9449 21.6313 21.2473 21.5032C21.5475 21.3751 21.7693 21.2042 21.9127 20.9928C22.0561 20.7814 22.1256 20.5551 22.1256 20.3138C22.1256 19.9508 22.0225 19.6732 21.8164 19.4767C21.6103 19.2803 21.3123 19.1265 20.9247 19.0133C20.5371 18.9002 20.0734 18.7913 19.5334 18.6845C18.9621 18.5799 18.4132 18.4475 17.8823 18.2873C17.3513 18.1293 16.8763 17.9286 16.4574 17.6873C16.0384 17.446 15.7046 17.1363 15.4604 16.7584C15.214 16.3804 15.093 15.9213 15.093 15.3768C15.093 14.7127 15.279 14.1169 15.6509 13.5873C16.0228 13.0599 16.5627 12.6392 17.2662 12.3296C17.9719 12.02 18.8143 11.8662 19.7978 11.8662C21.1913 11.8662 22.3048 12.1716 23.136 12.7823C23.9671 13.393 24.4555 14.2514 24.5967 15.3533H21.8881C21.8097 14.9305 21.5879 14.6016 21.2227 14.3689C20.8575 14.1361 20.3758 14.0187 19.7732 14.0187C19.1705 14.0187 18.6843 14.1276 18.3595 14.3475C18.0346 14.5675 17.8733 14.8579 17.8733 15.2188C17.8733 15.4601 17.9719 15.6715 18.1713 15.853C18.3684 16.0345 18.6575 16.1904 19.0383 16.3163C19.4192 16.4445 19.8852 16.5683 20.4408 16.69C21.328 16.8566 22.1121 17.0531 22.7932 17.2794C23.4743 17.5058 24.012 17.8389 24.4085 18.2766C24.805 18.7144 25.0022 19.3336 25.0022 20.1344C25.0179 20.8583 24.823 21.5011 24.4197 22.0605C24.0164 22.62 23.4496 23.0535 22.7215 23.3631C21.9934 23.6727 21.1219 23.8265 20.107 23.8265L20.1047 23.8244Z" fill="#081619"/>
</svg>
