<svg width="20" height="20" viewBox="0 0 20 20" fill="none" xmlns="http://www.w3.org/2000/svg">
<rect width="20" height="20" rx="10" fill="#666666"/>
<path d="M5 16L8.31327 4H9.85789L6.54462 16H5Z" fill="white"/>
<path d="M12.2787 14.6944C11.6887 14.6944 11.1759 14.597 10.7403 14.4023C10.3047 14.2076 9.96113 13.9359 9.71096 13.5874C9.45954 13.2389 9.31267 12.8379 9.2691 12.3844H10.8535C10.8971 12.5753 10.9768 12.7495 11.0913 12.9071C11.2058 13.066 11.3614 13.1903 11.5605 13.2812C11.7584 13.3722 11.9937 13.417 12.2662 13.417C12.5388 13.417 12.7454 13.3786 12.9135 13.3017C13.0802 13.2248 13.2035 13.1223 13.2831 12.9955C13.3628 12.8687 13.4014 12.7329 13.4014 12.5881C13.4014 12.3703 13.3441 12.2037 13.2296 12.0858C13.1151 11.968 12.9495 11.8757 12.7342 11.8078C12.5189 11.7399 12.2613 11.6746 11.9613 11.6105C11.6439 11.5477 11.339 11.4683 11.044 11.3722C10.749 11.2774 10.4851 11.1569 10.2524 11.0122C10.0196 10.8674 9.83418 10.6816 9.69851 10.4548C9.5616 10.2281 9.49439 9.95259 9.49439 9.62587C9.49439 9.22741 9.59769 8.86995 9.80431 8.5522C10.0109 8.23574 10.3109 7.98334 10.7017 7.79756C11.0938 7.61178 11.5618 7.51953 12.1082 7.51953C12.8823 7.51953 13.5009 7.70275 13.9627 8.06918C14.4245 8.43561 14.6958 8.95066 14.7742 9.61178H13.2694C13.2259 9.3581 13.1026 9.16079 12.8998 9.02113C12.6969 8.88148 12.4293 8.81101 12.0945 8.81101C11.7597 8.81101 11.4896 8.87635 11.3091 9.00832C11.1286 9.14029 11.039 9.31453 11.039 9.53106C11.039 9.67584 11.0938 9.80268 11.2045 9.91159C11.3141 10.0205 11.4746 10.114 11.6862 10.1896C11.8978 10.2665 12.1567 10.3408 12.4654 10.4138C12.9583 10.5138 13.3939 10.6316 13.7723 10.7674C14.1506 10.9033 14.4494 11.1031 14.6697 11.3658C14.89 11.6284 14.9995 12 14.9995 12.4805C15.0082 12.9148 14.8999 13.3004 14.6759 13.6361C14.4518 13.9718 14.1369 14.2319 13.7324 14.4177C13.3279 14.6035 12.8438 14.6957 12.2799 14.6957L12.2787 14.6944Z" fill="white"/>
</svg>
