<svg width="500" height="182" viewBox="0 0 500 182" fill="none" xmlns="http://www.w3.org/2000/svg">
<g clip-path="url(#clip0_4146_146)">
<path d="M0 182L51.8969 0H76.0908L24.1939 182H0Z" fill="#122023"/>
<path d="M114.009 162.199C104.768 162.199 96.7357 160.722 89.9123 157.768C83.0889 154.815 77.7081 150.695 73.7895 145.41C69.8515 140.124 67.551 134.042 66.8687 127.163H91.6864C92.3687 130.058 93.6164 132.701 95.41 135.091C97.2036 137.501 99.6405 139.386 102.76 140.765C105.86 142.145 109.544 142.825 113.814 142.825C118.083 142.825 121.319 142.242 123.951 141.076C126.564 139.91 128.494 138.356 129.742 136.432C130.989 134.508 131.594 132.448 131.594 130.253C131.594 126.949 130.697 124.423 128.903 122.635C127.11 120.847 124.517 119.448 121.144 118.419C117.771 117.389 113.736 116.398 109.037 115.426C104.066 114.474 99.2896 113.269 94.6692 111.812C90.0488 110.374 85.9157 108.547 82.2701 106.351C78.6244 104.155 75.7196 101.338 73.5946 97.8983C71.4501 94.4589 70.3973 90.281 70.3973 85.3258C70.3973 79.2825 72.0155 73.861 75.2517 69.0418C78.4879 64.2421 83.1864 60.414 89.3079 57.5964C95.449 54.7787 102.779 53.3796 111.338 53.3796C123.464 53.3796 133.153 56.1584 140.386 61.716C147.619 67.2735 151.869 75.0852 153.097 85.1121H129.527C128.845 81.2645 126.915 78.272 123.737 76.1539C120.559 74.0358 116.368 72.9671 111.123 72.9671C105.879 72.9671 101.649 73.9581 98.8217 75.9596C95.9949 77.9611 94.5912 80.6038 94.5912 83.8879C94.5912 86.0837 95.449 88.0074 97.1841 89.6592C98.8997 91.3109 101.415 92.7294 104.729 93.8759C108.043 95.0418 112.098 96.1689 116.933 97.2765C124.653 98.7922 131.477 100.58 137.403 102.64C143.33 104.7 148.009 107.731 151.459 111.714C154.91 115.698 156.626 121.333 156.626 128.62C156.762 135.208 155.066 141.057 151.557 146.148C148.048 151.239 143.115 155.184 136.779 158.001C130.443 160.819 122.86 162.218 114.028 162.218L114.009 162.199Z" fill="#122023"/>
<path d="M216.692 162.199C206.359 162.199 197.255 159.964 189.398 155.495C181.541 151.025 175.4 144.749 170.994 136.626C166.588 128.523 164.385 119.176 164.385 108.605C164.385 98.0342 166.549 87.9879 170.897 79.7487C175.244 71.5096 181.366 65.0387 189.3 60.3751C197.235 55.7114 206.437 53.3601 216.906 53.3601C227.375 53.3601 235.992 55.6337 243.576 60.1613C251.16 64.689 257.008 70.7712 261.161 78.4079C265.294 86.0253 267.36 94.5948 267.36 104.078V108.605C267.36 110.257 267.224 111.967 266.951 113.755H182.165V97.8788H242.348C242.075 90.3197 239.521 84.3736 234.705 80.0402C229.87 75.7069 223.885 73.5499 216.711 73.5499C211.603 73.5499 206.924 74.7159 202.655 77.0477C198.385 79.3795 195.013 82.8579 192.517 87.4632C190.041 92.0686 188.794 97.8788 188.794 104.874V110.859C188.794 117.311 190.002 122.888 192.42 127.551C194.837 132.215 198.132 135.771 202.343 138.161C206.554 140.571 211.272 141.776 216.516 141.776C222.306 141.776 227.102 140.532 230.884 138.064C234.666 135.596 237.474 132.293 239.267 128.173H264.494C262.564 134.625 259.387 140.435 254.981 145.584C250.575 150.734 245.116 154.795 238.643 157.749C232.171 160.702 224.86 162.179 216.731 162.179L216.692 162.199Z" fill="#122023"/>
<path d="M279.857 159.731V55.8475H301.77L303.622 73.1614C306.8 67.1181 311.342 62.3184 317.269 58.7429C323.195 55.1674 330.233 53.3796 338.363 53.3796C346.492 53.3796 353.94 55.1285 359.866 58.6263C365.793 62.124 370.374 67.2541 373.611 73.9775C376.847 80.7204 378.465 89.0956 378.465 99.1225V159.711H353.647V101.377C353.647 92.71 351.717 86.0642 347.857 81.3811C343.997 76.7175 338.265 74.3662 330.701 74.3662C325.73 74.3662 321.285 75.5321 317.366 77.8639C313.428 80.1958 310.328 83.5964 308.067 88.0657C305.786 92.5351 304.655 97.9372 304.655 104.253V159.692H279.837L279.857 159.731Z" fill="#122023"/>
<path d="M440.246 162.199C430.596 162.199 421.979 159.867 414.395 155.184C406.812 150.52 400.924 144.049 396.713 135.81C392.502 127.571 390.416 118.224 390.416 107.789C390.416 97.3543 392.561 88.0463 396.83 79.8655C401.1 71.6846 407.065 65.2332 414.707 60.4918C422.35 55.7504 431.006 53.3797 440.656 53.3797C448.512 53.3797 455.375 54.8565 461.224 57.8102C467.072 60.7638 471.732 64.9223 475.182 70.2855V11.3289H500V159.731H477.658L475.182 144.691C472.979 147.722 470.289 150.559 467.111 153.241C463.933 155.922 460.151 158.079 455.745 159.731C451.339 161.383 446.154 162.199 440.227 162.199H440.246ZM445.413 140.765C451.339 140.765 456.584 139.366 461.126 136.549C465.668 133.731 469.197 129.845 471.673 124.909C474.149 119.954 475.397 114.26 475.397 107.809C475.397 101.357 474.149 95.6443 471.673 90.7085C469.197 85.7728 465.668 81.9253 461.126 79.1659C456.584 76.426 451.339 75.0463 445.413 75.0463C439.486 75.0463 434.651 76.426 430.109 79.1659C425.566 81.9253 422.018 85.7534 419.464 90.7085C416.91 95.6637 415.643 101.357 415.643 107.809C415.643 114.26 416.91 119.973 419.464 124.909C422.018 129.845 425.566 133.731 430.109 136.549C434.651 139.366 439.759 140.765 445.413 140.765Z" fill="#122023"/>
</g>
<defs>
<clipPath id="clip0_4146_146">
<rect width="500" height="182" fill="white"/>
</clipPath>
</defs>
</svg>
